<?xml version="1.0" encoding="UTF-8"?>
<svg id="Layer_1" data-name="Layer 1" xmlns="http://www.w3.org/2000/svg" viewBox="0 0 488.89 275.28">
  <defs>
    <style>
      .cls-1 {
        fill: #00301f;
      }

      .cls-1, .cls-2 {
        fill-rule: evenodd;
      }

      .cls-2 {
        fill: #c0934b;
      }
    </style>
  </defs>
  <g>
    <path class="cls-1" d="M467.73,186.48h17.63v5.4h-17.63c-.6,0-1.09-.49-1.09-1.09v-3.22c0-.6.49-1.09,1.09-1.09Z"/>
    <path class="cls-1" d="M455.53,194.56h29.83v4.54h-29.83c-.5,0-.92-.41-.92-.92v-2.7c0-.5.41-.92.92-.92h0Z"/>
    <path class="cls-1" d="M444.23,201.63h41.13v4.54h-41.13c-.5,0-.92-.41-.92-.92v-2.7c0-.5.41-.92.92-.92h0Z"/>
    <path class="cls-1" d="M433.79,209.13h51.57v4.54h-51.57c-.5,0-.92-.41-.92-.92v-2.7c0-.5.41-.92.92-.92h0Z"/>
    <path class="cls-1" d="M427.15,217.77h58.21v3.74h-58.21c-.42,0-.76-.34-.76-.76v-2.23c0-.42.34-.76.76-.76h0Z"/>
    <path class="cls-1" d="M421.02,225.08h64.34v4.39h-64.34c-.49,0-.89-.4-.89-.89v-2.62c0-.49.4-.89.89-.89h0Z"/>
    <path class="cls-1" d="M416.21,233.13h69.16v3.02h-69.16c-.34,0-.61-.27-.61-.61v-1.8c0-.34.27-.61.61-.61h0Z"/>
    <path class="cls-1" d="M412.66,240.34h72.7v4.03h-72.7c-.45,0-.82-.37-.82-.82v-2.4c0-.45.37-.82.82-.82h0Z"/>
    <path class="cls-1" d="M409.57,248.56h75.79v3.31h-75.79c-.37,0-.67-.3-.67-.67v-1.97c0-.37.3-.67.67-.67h0Z"/>
    <path class="cls-1" d="M407.2,256.36h78.16v3.02h-78.16c-.34,0-.61-.28-.61-.61v-1.8c0-.34.28-.61.61-.61h0Z"/>
    <polygon class="cls-1" points="399.52 264.19 485.36 264.19 485.36 267 393.85 267 399.52 264.19"/>
  </g>
  <path class="cls-1" d="M229.52,19.82c-3.84-4.27-9.7-2.76-20.23-2.78-23.46-.05-17.74-4.92-17.73,52.28,0,15.68.25,31.64-.09,47.29-.44,20.17-20.55,18.48-26.42,11.95-4.5-5.02-3.67-11.94-3.69-19.49l.05-70.5c0-5.57,1.74-18.86-2.43-20.9-2.39-1.17-19-.55-23.19-.56-15.63-.04-13.24-3.67-13.08,34.21.07,15.5.02,31,.04,46.5.02,16.38-1.45,28.98,4.98,42.54,17.63,37.17,68,39.39,90.76,10.16,8.36-10.73,11.29-20.04,11.43-36.2.11-13.12.88-87.67-.41-94.5h.01Z"/>
  <path class="cls-1" d="M241.96,28.07l-.11,111.75c0,35.53-5.5,29.91,28.94,29.91,7.46,0,8.3-1.39,8.28-8.91l-.08-41.25c0-7.77.98-6.21,9.79-6.24,70.38-.25,71.13-96.56,0-96.36l-39.75.08c-8.06,0-7.05,3.74-7.08,11.01h0ZM279.64,54.32c1.69-1.48,8.84-.73,11.41-.73,4.05,0,6.99-.3,9.76,2.18,4.27,3.83,4.13,14.1-.01,18.07-2.78,2.66-17.34,4.08-20.5,2.33-2.47-1.37-1.45-7.67-1.44-10.6.01-2.73-1.04-9.66.77-11.25h.01Z"/>
  <path class="cls-1" d="M436.47,133.09c-1.03-3.42-1.01-18.39.11-21.73,7.9-2.32,32.86,2.59,37.53-2.22,1.85-2.98,1.3-28.52.24-32.65-8.32-2.85-29.98,1.16-37.75-1.27-1.27-3.27-.72-10.56-.75-14.93-.07-8.51,1.57-6.69,9.69-6.6,10.69.11,21.6.09,32.29-.07,10.28-.16,7.82-4.4,7.94-24.04.09-14.86,1.37-12.6-19.98-12.57-71.62.11-66.64-4.76-66.53,14.07l-.16,130.54c0,7.21,1.03,8.16,8.15,8.16h65.29c15.07-.04,13.07.74,13.05-20.2-.02-18.79,2.16-16.04-16.8-16.05-7.86,0-26.05.85-32.33-.43h0Z"/>
  <path class="cls-1" d="M1.94,25.07l.19,133.5c-.02,13.81.46,11.15,25.66,11.12l18,.02c12.14-.07,8.62-3.8,3.1-11.23-2.56-3.44-4.05-5.36-6.4-8.58-4.03-5.53-8.24-11.1-12.69-17.33-4.19-5.86-8.44-11.45-12.72-17.28-5.52-7.52-9.31-8.23-7.54-21.44,9.53-2.68,33.63,4.29,41.87-15.2.96-2.27,1.55-4.45.79-6.78-15.09-.93-27.52-.47-42.93-.43-.87-3.56,1.98-10.58,3.87-13.08,1.35-.96,34.39-.56,37.46-.58-.2-5.33-8.66-11.02-14.23-12.16-7.56-1.55-19.62.7-26.5-1.14-.38-3.66,1.05-6.51,2.28-9.61,2.14-5.39,2.31-4.29,12.64-4.27l68.47.03c.56,4.43-2.87,12.07-4.75,14.46l-20.42.21c.38,2.33,4.07,10.46,5.45,12.37l20.55.31c.17,3.66-.92,6.31-2.23,9.45-1.93,4.62-3.13,3.9-10.07,3.89-11.98-.03-7.39-.3-11.04,9.46-5.4,14.42-16.77,21.96-31.56,24.58l-4.13,1.46c1.59,4.06,20.93,29.06,24.91,34.58l18.68,25.58c3.59,4.16,10.93,2.7,19.65,2.68,4.13-.01,16.01,1.53,18.26-1.91,2.15-3.83-4.35-11.17-6.52-14.91-3.94-6.81-25.55-39.3-25.87-43.86,3.74-3.44,14.92-6.02,23.26-23,11.4-23.23,2.65-52.72-19.79-63.72-15.03-7.37-37.14-5.16-56.83-5.17l-20.25-.02c-7.42-.02-8.6.21-8.6,8h-.02Z"/>
  <path class="cls-1" d="M349.12,81.32v79.5c-.03,4.9-.1,8.13,4.25,8.83l17.17.14c18.98,0,16.48,3.15,16.52-31.46l.15-75.75c0-4.52-.33-4.97-2.31-7.49-4.63-.35-16.98,6.45-22.16,8.72-12.31,5.4-13.64,2.22-13.63,17.53v-.02Z"/>
  <path class="cls-1" d="M179.03,194.57c1.98,5.8,9.82-2.9,9.89,12.72l.07,45.79c.01,7.49,0,10.29-5.72,11.47-.5.1-2.17.39-2.45.52-1.92.87-.83-.39-1.77,1.5,2.19,2.42,14.07,1.32,19.81,1.32,3.75,0,4.29.57,5.07-2.07-8.66-5.08-10.66,6.81-10.83-23.25-.06-10.98-.6-23.16.25-34.01,1.66,1.19,11.31,24.77,13.01,28.72,1.94,4.5,10.71,28.52,13.43,30.24,2.3-.94,1.54-.27,2.69-2.76.49-1.06.99-2.75,1.4-3.83,1.15-3.04,2.18-5.5,3.17-8.08,3.08-8.04,16.65-43.82,19.59-46.3l.02,52.45c-1.2,8.69-10.36,3.84-10.07,7.57,1.44,2.87,12.82,1.37,16.2,1.38,4.12.01,14.31,1.58,16.8-1.38-1.25-2.58.66-1.16-3.74-2.02-5.4-1.05-6.52-1.31-6.53-10.72l.06-45.01c.18-18.19,5.68-7.73,10.43-13.5-1.5-2.74-5.98-1.81-11.02-1.79-4.33.02-8.63-.14-12.95.26l-21.25,53.9c-2.68-2.56-19.13-46.08-22.97-53.7l-20.08-.41c-5.41,1.04,4.02-1.42-1.32.39-.2.07-.45.22-.61.28-.16.06-.41.18-.59.31h0Z"/>
  <path class="cls-1" d="M275.22,195.32c4.13,5.11,10.28-4.09,10.35,11.99l.13,45.76c.04,7.09.95,10.45-5.44,11.56-3.98.69-3.11-.71-4.32,1.94,1.93,2.61,26.46,1.31,30.85,1.29,5.4-.03,28.32.96,31.2-.67l.55-1c.86-2.78,1.19-19.04.76-20.89-3.73-.16-3.76,5.43-5.34,8.66-5.46,11.21-16.27,10.62-28.7,10.21-9.79-.32-7.37-6.01-6.96-33.19,28.33-1.83,15.78,13.03,23.49,13.64,1.45-2.3.97-28.02.43-32.43-9.64-.67,6.84,16.19-23.73,14.66-.38-4.73-.16-9.53-.17-14.28l.82-14.48c.28-.26,25.24-6.02,31.86,7.5.79,1.62,1.29,3.05,1.86,4.96.95,3.18.23,3.74,3.17,4.05,1.68-2.53.82-16.72.62-20.74-4.3-1.02-38.15-.46-47.12-.42-2.51.01-5,.06-7.52.01-9.42-.16-5.78.54-6.8,1.88h.01Z"/>
  <path class="cls-2" d="M362.37,3.14c-31.82,8.45-17.09,51.69,10.73,44.72,10.55-2.65,20.25-14.39,17.04-27.56-2.51-10.29-13.6-20.92-27.77-17.16h0Z"/>
  <path class="cls-1" d="M350.46,240.65c-1.12,2.24-1.24,24.21-.17,27.35,4.14.3,2.36-.96,5.22-3.49,7.27-.6,11.1,5.55,23.07,4.2,23.4-2.64,35.26-29.65,4.63-42.61-6.39-2.7-14.14-4.85-18.92-8.79-5.92-4.88-6.64-14.55.29-18.93,6.36-4.02,15.92-2.48,20.94,2.2,2.37,2.2,3.95,4.62,5.45,8.06,1.84,4.23.99,8.89,5.07,9.2,1.52-2.03,1.56-17.6,1.06-21.8l-1.06-3.18c-3.42.46-2.99,1.45-4.28,4.1-2.38-.19-29.6-13.97-39.36,7.19-3.42,7.43-2.21,16.55,1.98,21.55,9.5,11.33,29.59,10.6,35.04,21.23,7.72,15.06-16.13,25.29-28.86,11.63-2.13-2.28-4.03-5.62-5.33-8.93-2.91-7.42-.68-8.71-4.78-8.97h.01Z"/>
  <path class="cls-1" d="M68.29,216.77c3.54-.24,3.08-3.44,4.14-6.83,5.26-16.92,20.48-12.23,20.85-11.85,1.46,1.51.93,49.96.72,58.01-.19,7.16-1.76,7.56-6.49,8.54-3.85.8-2.41-.57-3.49,1.93,2.06,2.79,12.08,1.38,15.77,1.38,3.01,0,6-.07,9.01-.08,3.14-.02,6.12.73,7.75-1.3-1.31-2.75,1.59-.77-3.12-1.93-2.92-.72-6.52.33-6.81-7.79-.22-6.38-.03-13.11-.06-19.53-.07-11.87-.91-28.27.12-39.62,14.31-2.7,18.81,4.96,22.29,15.65,1.2,3.67.26,2.64,3.46,3.14,1.44-4.02.8-17.33.4-22.67l-65.17-.18c-.41,4.12-1.02,20.98.63,23.13h0Z"/>
  <path class="cls-1" d="M139.75,195.32c2.71,5.03,9.81-4.97,9.79,12.75,0,7.5.01,15,.02,22.5,0,4.86,1.38,29.3-1.59,32.38-3.12,3.23-5.95-.03-7.78,3.62,2.15,2.91,12.04,1.36,15.85,1.36s13.7,1.42,15.74-1.36c-1.23-2.58.14-1.01-3.45-1.84-5.99-1.39-5.99-3.13-5.95-10.89.05-7.51.01-15.01,0-22.52-.01-7.5,0-15-.07-22.5-.15-18.08,5.92-7.9,9.62-13.5-.82-1.98-.2-1.93-6.87-1.75-3,.08-6.01,0-9.02,0s-6.02.1-9.01.07c-.91,0-3.88-.13-4.55-.03-4.25.59-1.73.5-2.72,1.71h0Z"/>
</svg>