<svg width="150" height="84" viewBox="0 0 150 84" fill="none" xmlns="http://www.w3.org/2000/svg">
<path fill-rule="evenodd" clip-rule="evenodd" d="M144.354 57.5078H149.818V59.1944H144.354C144.168 59.1944 144.017 59.0414 144.017 58.854V57.8483C144.017 57.6609 144.168 57.5078 144.354 57.5078Z" fill="white"/>
<path fill-rule="evenodd" clip-rule="evenodd" d="M140.573 60.0269H149.818V61.4449H140.573C140.418 61.4449 140.288 61.3168 140.288 61.1575V60.3142C140.288 60.158 140.415 60.0269 140.573 60.0269Z" fill="white"/>
<path fill-rule="evenodd" clip-rule="evenodd" d="M137.071 62.2388H149.818V63.6568H137.071C136.916 63.6568 136.786 63.5287 136.786 63.3694V62.5261C136.786 62.3699 136.913 62.2388 137.071 62.2388Z" fill="white"/>
<path fill-rule="evenodd" clip-rule="evenodd" d="M133.836 64.5806H149.818V65.9986H133.836C133.681 65.9986 133.551 65.8705 133.551 65.7112V64.8679C133.551 64.7117 133.678 64.5806 133.836 64.5806Z" fill="white"/>
<path fill-rule="evenodd" clip-rule="evenodd" d="M131.779 67.2766H149.819V68.4447H131.779C131.648 68.4447 131.543 68.3385 131.543 68.2073V67.5108C131.543 67.3796 131.648 67.2734 131.779 67.2734V67.2766Z" fill="white"/>
<path fill-rule="evenodd" clip-rule="evenodd" d="M129.878 69.5617H149.818V70.9329H129.878C129.727 70.9329 129.603 70.8079 129.603 70.6549V69.8366C129.603 69.6835 129.727 69.5586 129.878 69.5586V69.5617Z" fill="white"/>
<path fill-rule="evenodd" clip-rule="evenodd" d="M128.387 72.0771H149.821V73.0204H128.387C128.282 73.0204 128.198 72.9361 128.198 72.8299V72.2677C128.198 72.1615 128.282 72.0771 128.387 72.0771Z" fill="white"/>
<path fill-rule="evenodd" clip-rule="evenodd" d="M127.287 74.3288H149.818V75.5875H127.287C127.148 75.5875 127.033 75.472 127.033 75.3314V74.5818C127.033 74.4412 127.148 74.3257 127.287 74.3257V74.3288Z" fill="white"/>
<path fill-rule="evenodd" clip-rule="evenodd" d="M126.33 76.8955H149.818V77.9293H126.33C126.215 77.9293 126.122 77.8356 126.122 77.7201V77.1048C126.122 76.9892 126.215 76.8955 126.33 76.8955Z" fill="white"/>
<path fill-rule="evenodd" clip-rule="evenodd" d="M125.595 79.3311H149.818V80.2743H125.595C125.49 80.2743 125.406 80.1869 125.406 80.0838V79.5216C125.406 79.4154 125.493 79.3311 125.595 79.3311Z" fill="white"/>
<path fill-rule="evenodd" clip-rule="evenodd" d="M123.215 81.7754H149.818V82.6531H121.458L123.215 81.7754Z" fill="white"/>
<path fill-rule="evenodd" clip-rule="evenodd" d="M70.531 5.44864C69.3409 4.11497 67.5249 4.58659 64.2615 4.58035C56.9909 4.56473 58.7636 3.04366 58.7667 20.9092C58.7667 25.8066 58.8442 30.7915 58.7388 35.6796C58.6024 41.9794 52.37 41.4515 50.5508 39.412C49.1562 37.844 49.4135 35.6827 49.4073 33.3246L49.4228 11.3049C49.4228 9.56522 49.962 5.41428 48.6697 4.77712C47.929 4.41169 42.7813 4.60534 41.4828 4.60221C36.6388 4.58972 37.3795 3.45595 37.4291 15.2872C37.4508 20.1284 37.4353 24.9696 37.4415 29.8108C37.4477 34.9268 36.9921 38.8623 38.9848 43.0975C44.4486 54.707 60.059 55.4004 67.1127 46.2708C69.7035 42.9195 70.6116 40.0117 70.655 34.9643C70.6891 30.8665 70.9277 7.58189 70.5279 5.44864H70.531Z" fill="white"/>
<path fill-rule="evenodd" clip-rule="evenodd" d="M74.3859 8.03538L74.3518 42.9388C74.3518 54.0361 72.6473 52.2808 83.3208 52.2808C85.6327 52.2808 85.893 51.8466 85.8868 49.4979L85.862 36.614C85.862 34.1872 86.1658 34.6744 88.8961 34.6651C110.708 34.587 110.94 4.50599 88.8961 4.56846L76.577 4.59344C74.0791 4.59344 74.3921 5.76158 74.3828 8.03225L74.3859 8.03538ZM86.0635 16.2342C86.5873 15.7719 88.8031 16.0062 89.5996 16.0062C90.8548 16.003 91.7659 15.9125 92.6244 16.6871C93.9477 17.8833 93.9043 21.091 92.6213 22.331C91.7597 23.1618 87.2474 23.6053 86.268 23.0587C85.5025 22.6308 85.8187 20.6631 85.8218 19.7479C85.8249 18.8953 85.4995 16.7308 86.0604 16.2342H86.0635Z" fill="white"/>
<path fill-rule="evenodd" clip-rule="evenodd" d="M134.666 40.8389C134.347 39.7707 134.353 35.0951 134.701 34.0519C137.149 33.3272 144.884 34.8608 146.332 33.3585C146.905 32.4277 146.734 24.4507 146.406 23.1607C143.827 22.2706 137.115 23.523 134.707 22.7641C134.313 21.7427 134.484 19.4658 134.474 18.1009C134.453 15.4429 134.961 16.0114 137.477 16.0395C140.79 16.0739 144.172 16.0676 147.484 16.0176C150.67 15.9677 149.908 14.6434 149.945 8.5091C149.973 3.8678 150.37 4.57367 143.753 4.58304C121.557 4.6174 123.1 3.09633 123.135 8.9776L123.085 49.7498C123.085 52.0018 123.404 52.2985 125.611 52.2985H145.845C150.515 52.286 149.896 52.5296 149.889 45.9893C149.883 40.1205 150.559 40.9795 144.683 40.9763C142.247 40.9763 136.61 41.2418 134.663 40.842L134.666 40.8389Z" fill="white"/>
<path fill-rule="evenodd" clip-rule="evenodd" d="M0 7.09149L0.0588843 48.7882C0.052686 53.1016 0.201441 52.2708 8.01126 52.2614L13.5897 52.2676C17.352 52.2458 16.2612 51.0808 14.5504 48.7601C13.7571 47.6857 13.2953 47.086 12.567 46.0803C11.318 44.3531 10.0133 42.6134 8.63419 40.6675C7.33565 38.8372 6.01852 37.0913 4.69209 35.2704C2.98137 32.9216 1.80679 32.6999 2.35534 28.5739C5.30881 27.7368 12.7777 29.9138 15.3314 23.8264C15.6289 23.1174 15.8118 22.4365 15.5762 21.7088C10.8997 21.4183 7.04743 21.562 2.27167 21.5745C2.00204 20.4626 2.88529 18.27 3.47103 17.4891C3.88941 17.1893 14.129 17.3142 15.0804 17.308C15.0184 15.6432 12.3965 13.866 10.6703 13.51C8.32737 13.0259 4.58981 13.7286 2.45761 13.1539C2.33984 12.0108 2.78302 11.1206 3.16421 10.1524C3.82743 8.46888 3.88011 8.81245 7.08152 8.8187L28.3013 8.82807C28.4748 10.2117 27.4118 12.598 26.8292 13.3444L20.5008 13.41C20.6185 14.1378 21.7621 16.6771 22.1898 17.2736L28.5585 17.3704C28.6112 18.5136 28.2734 19.3413 27.8674 20.322C27.2693 21.765 26.8974 21.5401 24.7466 21.537C21.0338 21.5276 22.4563 21.4433 21.3251 24.4917C19.6516 28.9956 16.1279 31.3506 11.5443 32.1689L10.2643 32.6249C10.7571 33.893 16.7508 41.7013 17.9843 43.4254L23.7735 51.415C24.886 52.7143 27.1608 52.2583 29.8632 52.252C31.1432 52.2489 34.825 52.7299 35.5223 51.6555C36.1886 50.4592 34.1741 48.1667 33.5016 46.9986C32.2806 44.8715 25.5834 34.7238 25.4842 33.2995C26.6433 32.2251 30.1081 31.4193 32.6928 26.1158C36.2258 18.8603 33.514 9.64951 26.5596 6.21382C21.9016 3.91191 15.0494 4.60217 8.9472 4.59905L2.67145 4.59281C0.371895 4.58656 0.00619959 4.6584 0.00619959 7.09149H0Z" fill="white"/>
<path fill-rule="evenodd" clip-rule="evenodd" d="M107.596 24.6546V49.4853C107.587 51.0157 107.565 52.0246 108.913 52.2432L114.234 52.2869C120.116 52.2869 119.342 53.2708 119.354 42.4608L119.401 18.8015C119.401 17.3897 119.298 17.2492 118.685 16.4621C117.25 16.3528 113.422 18.4766 111.817 19.1856C108.002 20.8722 107.59 19.879 107.593 24.6609L107.596 24.6546Z" fill="white"/>
<path fill-rule="evenodd" clip-rule="evenodd" d="M54.883 60.0343C55.4966 61.8458 57.9263 59.1285 57.948 64.0072L57.9697 78.309C57.9728 80.6484 57.9697 81.5229 56.197 81.8915C56.0421 81.9227 55.5245 82.0133 55.4377 82.0539C54.8427 82.3256 55.1805 81.9321 54.8892 82.5224C55.5679 83.2783 59.2497 82.9347 61.0286 82.9347C62.1908 82.9347 62.3581 83.1127 62.5998 82.2882C59.916 80.7015 59.2962 84.4152 59.2435 75.0264C59.2249 71.5969 59.0575 67.7927 59.321 64.4039C59.8354 64.7755 62.8261 72.1404 63.3529 73.3741C63.9542 74.7796 66.6721 82.2819 67.5151 82.8191C68.2279 82.5255 67.9924 82.7348 68.3488 81.9571C68.5006 81.626 68.6556 81.0982 68.7826 80.7608C69.139 79.8113 69.4582 79.043 69.7651 78.2372C70.7196 75.726 74.9251 64.5506 75.8363 63.7761L75.8425 80.158C75.4706 82.8722 72.6318 81.3574 72.7216 82.5224C73.1679 83.4188 76.6947 82.9503 77.7423 82.9534C79.0191 82.9566 82.1771 83.4469 82.9488 82.5224C82.5614 81.7166 83.1534 82.1601 81.7897 81.8915C80.1162 81.5635 79.7691 81.4823 79.766 78.5433L79.7846 64.4851C79.8404 58.8037 81.5449 62.0707 83.017 60.2685C82.5521 59.4127 81.1637 59.7032 79.6017 59.7095C78.2598 59.7157 76.9272 59.6657 75.5883 59.7907L69.0027 76.6255C68.1721 75.8259 63.074 62.2331 61.8839 59.8531L55.6609 59.7251C53.9842 60.0499 56.9067 59.2816 55.2518 59.8469C55.1898 59.8687 55.1123 59.9156 55.0627 59.9343C55.0131 59.9531 54.9357 59.9906 54.8799 60.0312L54.883 60.0343Z" fill="white"/>
<path fill-rule="evenodd" clip-rule="evenodd" d="M84.6935 60.2674C85.9735 61.8634 87.8794 58.9899 87.9011 64.0123L87.9414 78.3047C87.9538 80.5192 88.2358 81.5686 86.2555 81.9153C85.022 82.1308 85.2917 81.6936 84.9167 82.5212C85.5148 83.3364 93.117 82.9304 94.4775 82.9242C96.151 82.9148 103.254 83.224 104.147 82.7149L104.317 82.4026C104.584 81.5343 104.686 76.4557 104.553 75.8779C103.397 75.8279 103.388 77.5739 102.898 78.5827C101.206 82.084 97.8556 81.8997 94.0033 81.7716C90.9693 81.6717 91.7193 79.8945 91.8463 71.4052C100.626 70.8337 96.7368 75.475 99.1262 75.6655C99.5756 74.9471 99.4268 66.9139 99.2595 65.5365C96.2719 65.3272 101.379 70.5932 91.9052 70.1153C91.7874 68.638 91.8556 67.1387 91.8525 65.6552L92.1067 61.1325C92.1934 61.0513 99.9289 59.2523 101.981 63.475C102.225 63.981 102.38 64.4277 102.557 65.0242C102.851 66.0175 102.628 66.1924 103.539 66.2892C104.06 65.499 103.794 61.0669 103.732 59.8114C102.399 59.4928 91.9083 59.6677 89.1284 59.6802C88.3505 59.6833 87.5788 59.6989 86.7978 59.6833C83.8785 59.6333 85.0065 59.852 84.6904 60.2705L84.6935 60.2674Z" fill="white"/>
<path fill-rule="evenodd" clip-rule="evenodd" d="M111.703 0.241594C101.841 2.88083 106.406 16.3862 115.028 14.2092C118.298 13.3815 121.304 9.71472 120.309 5.60127C119.531 2.38734 116.094 -0.932786 111.703 0.241594Z" fill="#C0934B"/>
<path fill-rule="evenodd" clip-rule="evenodd" d="M108.011 74.4253C107.664 75.125 107.627 81.987 107.959 82.9677C109.242 83.0614 108.69 82.6679 109.577 81.8776C111.83 81.6902 113.017 83.6111 116.726 83.1894C123.978 82.3649 127.654 73.9287 118.161 69.8809C116.181 69.0376 113.779 68.366 112.298 67.1354C110.463 65.6112 110.24 62.591 112.387 61.2229C114.359 59.9673 117.321 60.4483 118.877 61.9101C119.612 62.5972 120.101 63.3531 120.566 64.4275C121.136 65.7487 120.873 67.2041 122.137 67.301C122.608 66.6669 122.621 61.8039 122.466 60.4921L122.137 59.4988C121.077 59.6425 121.211 59.9517 120.811 60.7794C120.073 60.7201 111.637 56.4161 108.613 63.0251C107.553 65.3458 107.928 68.1943 109.226 69.7559C112.171 73.2947 118.397 73.0667 120.086 76.3868C122.478 81.0906 115.087 84.2857 111.142 80.0193C110.481 79.3071 109.893 78.2639 109.49 77.2301C108.588 74.9126 109.279 74.5097 108.008 74.4285L108.011 74.4253Z" fill="white"/>
<path fill-rule="evenodd" clip-rule="evenodd" d="M20.5636 66.9645C21.6607 66.8896 21.5181 65.8901 21.8466 64.8313C23.4768 59.5466 28.1937 61.0114 28.3084 61.1301C28.7608 61.6017 28.5966 76.7344 28.5315 79.2487C28.4726 81.485 27.9861 81.6099 26.5202 81.916C25.327 82.1659 25.7733 81.738 25.4385 82.5188C26.077 83.3902 29.1823 82.9499 30.3259 82.9499C31.2587 82.9499 32.1854 82.928 33.1182 82.9249C34.0914 82.9186 35.0149 83.1529 35.5201 82.5188C35.1141 81.6599 36.0128 82.2783 34.5531 81.916C33.6482 81.6911 32.5325 82.0191 32.4426 79.4829C32.3744 77.4902 32.4333 75.3882 32.424 73.383C32.4023 69.6756 32.142 64.5533 32.4612 61.0083C36.8961 60.165 38.2907 62.5575 39.3692 65.8964C39.7411 67.0426 39.4498 66.7209 40.4415 66.8771C40.8878 65.6215 40.6894 61.4643 40.5655 59.7965L20.3684 59.7402C20.2413 61.0271 20.0522 66.293 20.5636 66.9645Z" fill="white"/>
<path fill-rule="evenodd" clip-rule="evenodd" d="M42.709 60.2677C43.5489 61.8387 45.7492 58.7154 45.743 64.2499C45.743 66.5925 45.7461 68.935 45.7492 71.2775C45.7492 72.7954 46.1769 80.4289 45.2565 81.3909C44.2895 82.3997 43.4125 81.3815 42.8453 82.5215C43.5117 83.4304 46.5767 82.9463 47.7575 82.9463C48.8887 82.9463 52.0033 83.3898 52.6355 82.5215C52.2543 81.7157 52.6789 82.2061 51.5663 81.9469C49.7099 81.5127 49.7099 80.9692 49.7223 78.5455C49.7378 76.1999 49.7254 73.8574 49.7223 71.5117C49.7192 69.1692 49.7223 66.8267 49.7006 64.4842C49.6542 58.8372 51.5353 62.0167 52.682 60.2677C52.4279 59.6492 52.62 59.6649 50.5529 59.7211C49.6232 59.7461 48.6903 59.7211 47.7575 59.7211C46.8277 59.7211 45.8918 59.7523 44.9652 59.743C44.6831 59.743 43.7627 59.7023 43.5551 59.7336C42.2379 59.9179 43.0189 59.8897 42.7121 60.2677H42.709Z" fill="white"/>
</svg>
