<svg width="25" height="23" viewBox="0 0 25 23" fill="none" xmlns="http://www.w3.org/2000/svg">
<path d="M23.3221 1.72009C23.3132 1.68036 23.2921 1.6438 23.2614 1.61468C23.2307 1.58556 23.1916 1.56509 23.1487 1.55568C20.2889 0.9124 13.681 3.20476 10.1009 6.49709C9.46237 7.07979 8.88025 7.71259 8.36116 8.38829C7.25715 8.29845 6.15315 8.37347 5.21223 8.75081C2.55745 9.82579 1.7845 12.6307 1.56917 13.8373C1.55695 13.9034 1.56156 13.9711 1.58263 14.0352C1.60369 14.0994 1.64064 14.1581 1.69057 14.2069C1.7405 14.2556 1.80204 14.2931 1.87037 14.3163C1.93869 14.3394 2.01192 14.3477 2.08431 14.3404L6.34749 13.9078C6.35053 14.2035 6.36993 14.4989 6.40559 14.7928C6.42705 14.9969 6.52552 15.1876 6.68391 15.3319L8.33479 16.8471C8.49172 16.9926 8.69896 17.0832 8.92073 17.1031C9.23839 17.1358 9.55765 17.1537 9.87727 17.1566L9.4095 21.0738C9.4017 21.1404 9.41076 21.2077 9.43599 21.2705C9.46121 21.3333 9.50191 21.3899 9.55489 21.4358C9.60787 21.4817 9.67169 21.5157 9.74135 21.5351C9.81101 21.5545 9.8846 21.5588 9.95637 21.5477C11.2655 21.3545 14.3197 20.6434 15.4813 18.201C15.8914 17.3354 15.9754 16.3246 15.8807 15.3139C16.6169 14.8363 17.3065 14.3006 17.9417 13.7129C21.533 10.4255 24.0106 4.48189 23.3221 1.72009ZM14.3587 9.7912C14.0308 9.4897 13.8074 9.1055 13.7169 8.68719C13.6263 8.26888 13.6726 7.83526 13.85 7.44117C14.0273 7.04709 14.3277 6.71024 14.7132 6.47325C15.0986 6.23626 15.5518 6.10976 16.0155 6.10976C16.4791 6.10976 16.9323 6.23626 17.3177 6.47325C17.7032 6.71024 18.0036 7.04709 18.1809 7.44117C18.3583 7.83526 18.4046 8.26888 18.3141 8.68719C18.2235 9.1055 18.0001 9.4897 17.6722 9.7912C17.4547 9.99155 17.1965 10.1505 16.9122 10.2589C16.6279 10.3674 16.3232 10.4232 16.0155 10.4232C15.7077 10.4232 15.403 10.3674 15.1187 10.2589C14.8344 10.1505 14.5762 9.99155 14.3587 9.7912Z" fill="#C0934B"/>
<path d="M8.22265 17.9441C7.95508 18.1907 7.52588 18.2869 7.00928 18.3691C5.84863 18.551 4.82373 17.6283 5.03223 16.5488C5.11182 16.1396 5.34717 15.566 5.49365 15.4312C5.52567 15.4023 5.54698 15.3649 5.55456 15.3242C5.56214 15.2835 5.5556 15.2417 5.53587 15.2047C5.51613 15.1676 5.48422 15.1372 5.44465 15.1178C5.40508 15.0984 5.35986 15.091 5.31543 15.0965C4.66639 15.1696 4.06257 15.4403 3.6001 15.8656C2.45215 16.9226 2.34375 20.8447 2.34375 20.8447C2.34375 20.8447 6.60937 20.745 7.75732 19.688C8.22102 19.2629 8.51566 18.7065 8.59375 18.1085C8.61181 17.9208 8.36328 17.8089 8.22265 17.9441Z" fill="#C0934B"/>
</svg>
